<svg width="252" height="94" viewBox="0 0 252 94" fill="none" xmlns="http://www.w3.org/2000/svg">
<g filter="url(#filter0_d_2251_1155)">
<rect x="13" y="9" width="226" height="68" rx="8" fill="#FFF3E0" stroke="#FEB027"/>
<path d="M86.962 26.07C86.71 25.5847 86.36 25.2207 85.912 24.978C85.464 24.726 84.946 24.6 84.358 24.6C83.714 24.6 83.14 24.7447 82.636 25.034C82.132 25.3233 81.7353 25.734 81.446 26.266C81.166 26.798 81.026 27.414 81.026 28.114C81.026 28.814 81.166 29.4347 81.446 29.976C81.7353 30.508 82.132 30.9187 82.636 31.208C83.14 31.4973 83.714 31.642 84.358 31.642C85.226 31.642 85.9307 31.3993 86.472 30.914C87.0133 30.4287 87.3447 29.7707 87.466 28.94H83.812V27.666H89.174V28.912C89.0713 29.668 88.8007 30.3633 88.362 30.998C87.9327 31.6327 87.368 32.1413 86.668 32.524C85.9773 32.8973 85.2073 33.084 84.358 33.084C83.4433 33.084 82.608 32.874 81.852 32.454C81.096 32.0247 80.494 31.432 80.046 30.676C79.6073 29.92 79.388 29.066 79.388 28.114C79.388 27.162 79.6073 26.308 80.046 25.552C80.494 24.796 81.096 24.208 81.852 23.788C82.6173 23.3587 83.4527 23.144 84.358 23.144C85.394 23.144 86.3133 23.4007 87.116 23.914C87.928 24.418 88.516 25.1367 88.88 26.07H86.962ZM97.8181 28.954C97.8181 29.2433 97.7995 29.5047 97.7621 29.738H91.8681C91.9148 30.354 92.1435 30.8487 92.5541 31.222C92.9648 31.5953 93.4688 31.782 94.0661 31.782C94.9248 31.782 95.5315 31.4227 95.8861 30.704H97.6081C97.3748 31.4133 96.9501 31.9967 96.3341 32.454C95.7275 32.902 94.9715 33.126 94.0661 33.126C93.3288 33.126 92.6661 32.9627 92.0781 32.636C91.4995 32.3 91.0421 31.8333 90.7061 31.236C90.3795 30.6293 90.2161 29.9293 90.2161 29.136C90.2161 28.3427 90.3748 27.6473 90.6921 27.05C91.0188 26.4433 91.4715 25.9767 92.0501 25.65C92.6381 25.3233 93.3101 25.16 94.0661 25.16C94.7941 25.16 95.4428 25.3187 96.0121 25.636C96.5815 25.9533 97.0248 26.4013 97.3421 26.98C97.6595 27.5493 97.8181 28.2073 97.8181 28.954ZM96.1521 28.45C96.1428 27.862 95.9328 27.3907 95.5221 27.036C95.1115 26.6813 94.6028 26.504 93.9961 26.504C93.4455 26.504 92.9741 26.6813 92.5821 27.036C92.1901 27.3813 91.9568 27.8527 91.8821 28.45H96.1521ZM101.251 26.588V30.858C101.251 31.1473 101.316 31.3573 101.447 31.488C101.587 31.6093 101.82 31.67 102.147 31.67H103.127V33H101.867C101.148 33 100.597 32.832 100.215 32.496C99.8321 32.16 99.6407 31.614 99.6407 30.858V26.588H98.7307V25.286H99.6407V23.368H101.251V25.286H103.127V26.588H101.251ZM109.046 24.264C108.757 24.264 108.514 24.166 108.318 23.97C108.122 23.774 108.024 23.5313 108.024 23.242C108.024 22.9527 108.122 22.71 108.318 22.514C108.514 22.318 108.757 22.22 109.046 22.22C109.326 22.22 109.564 22.318 109.76 22.514C109.956 22.71 110.054 22.9527 110.054 23.242C110.054 23.5313 109.956 23.774 109.76 23.97C109.564 24.166 109.326 24.264 109.046 24.264ZM109.83 25.286V33H108.234V25.286H109.83ZM113.788 26.588V30.858C113.788 31.1473 113.853 31.3573 113.984 31.488C114.124 31.6093 114.357 31.67 114.684 31.67H115.664V33H114.404C113.685 33 113.135 32.832 112.752 32.496C112.369 32.16 112.178 31.614 112.178 30.858V26.588H111.268V25.286H112.178V23.368H113.788V25.286H115.664V26.588H113.788ZM124.118 33.126C123.39 33.126 122.732 32.9627 122.144 32.636C121.556 32.3 121.094 31.8333 120.758 31.236C120.422 30.6293 120.254 29.9293 120.254 29.136C120.254 28.352 120.426 27.6567 120.772 27.05C121.117 26.4433 121.588 25.9767 122.186 25.65C122.783 25.3233 123.45 25.16 124.188 25.16C124.925 25.16 125.592 25.3233 126.19 25.65C126.787 25.9767 127.258 26.4433 127.604 27.05C127.949 27.6567 128.122 28.352 128.122 29.136C128.122 29.92 127.944 30.6153 127.59 31.222C127.235 31.8287 126.75 32.3 126.134 32.636C125.527 32.9627 124.855 33.126 124.118 33.126ZM124.118 31.74C124.528 31.74 124.911 31.642 125.266 31.446C125.63 31.25 125.924 30.956 126.148 30.564C126.372 30.172 126.484 29.696 126.484 29.136C126.484 28.576 126.376 28.1047 126.162 27.722C125.947 27.33 125.662 27.036 125.308 26.84C124.953 26.644 124.57 26.546 124.16 26.546C123.749 26.546 123.366 26.644 123.012 26.84C122.666 27.036 122.391 27.33 122.186 27.722C121.98 28.1047 121.878 28.576 121.878 29.136C121.878 29.9667 122.088 30.6107 122.508 31.068C122.937 31.516 123.474 31.74 124.118 31.74ZM133.591 25.16C134.198 25.16 134.739 25.286 135.215 25.538C135.701 25.79 136.079 26.1633 136.349 26.658C136.62 27.1527 136.755 27.75 136.755 28.45V33H135.173V28.688C135.173 27.9973 135.001 27.47 134.655 27.106C134.31 26.7327 133.839 26.546 133.241 26.546C132.644 26.546 132.168 26.7327 131.813 27.106C131.468 27.47 131.295 27.9973 131.295 28.688V33H129.699V25.286H131.295V26.168C131.557 25.8507 131.888 25.6033 132.289 25.426C132.7 25.2487 133.134 25.16 133.591 25.16Z" fill="#25282D"/>
<path d="M124.94 47.1747C120.945 47.1747 117.681 50.2177 117.681 54.3997C117.681 58.5647 120.945 61.6247 124.94 61.6247C128.935 61.6247 132.199 58.5647 132.199 54.3997C132.199 50.2177 128.935 47.1747 124.94 47.1747ZM124.94 58.7857C122.747 58.7857 120.86 56.9837 120.86 54.3997C120.86 51.7987 122.747 50.0137 124.94 50.0137C127.133 50.0137 129.02 51.7987 129.02 54.3997C129.02 56.9837 127.116 58.7857 124.94 58.7857ZM109.096 47.1747C105.101 47.1747 101.837 50.2177 101.837 54.3997C101.837 58.5647 105.101 61.6247 109.096 61.6247C113.091 61.6247 116.355 58.5647 116.355 54.3997C116.355 50.2177 113.091 47.1747 109.096 47.1747ZM109.096 58.7857C106.903 58.7857 105.016 56.9837 105.016 54.3997C105.016 51.7987 106.903 50.0137 109.096 50.0137C111.289 50.0137 113.176 51.7987 113.176 54.3997C113.176 56.9837 111.289 58.7857 109.096 58.7857ZM90.26 49.4017V52.4617H97.604C97.383 54.1787 96.805 55.4537 95.938 56.3207C94.867 57.3917 93.201 58.5647 90.277 58.5647C85.755 58.5647 82.219 54.9267 82.219 50.4047C82.219 45.8827 85.755 42.2447 90.277 42.2447C92.708 42.2447 94.493 43.1967 95.802 44.4377L97.961 42.2787C96.125 40.5277 93.694 39.1847 90.26 39.1847C84.072 39.1847 78.87 44.2167 78.87 50.4217C78.87 56.6097 84.072 61.6587 90.26 61.6587C93.609 61.6587 96.125 60.5707 98.097 58.5137C100.12 56.4907 100.749 53.6347 100.749 51.3397C100.749 50.6257 100.698 49.9627 100.579 49.4187H90.26V49.4017ZM167.287 51.7817C166.692 50.1667 164.856 47.1747 161.099 47.1747C157.376 47.1747 154.282 50.0987 154.282 54.3997C154.282 58.4457 157.342 61.6247 161.456 61.6247C164.771 61.6247 166.692 59.6017 167.474 58.4287L165.009 56.7797C164.193 57.9867 163.071 58.7857 161.456 58.7857C159.841 58.7857 158.685 58.0377 157.954 56.5927L167.627 52.5977L167.287 51.7817ZM157.427 54.1957C157.342 51.4077 159.586 49.9797 161.201 49.9797C162.459 49.9797 163.53 50.6087 163.887 51.5097L157.427 54.1957ZM149.573 61.1997H152.752V39.9497H149.573V61.1997ZM144.371 48.7897H144.252C143.538 47.9397 142.178 47.1747 140.444 47.1747C136.823 47.1747 133.508 50.3537 133.508 54.4337C133.508 58.4797 136.823 61.6417 140.444 61.6417C142.161 61.6417 143.538 60.8767 144.252 59.9927H144.354V61.0297C144.354 63.8007 142.875 65.2797 140.495 65.2797C138.557 65.2797 137.35 63.8857 136.857 62.7127L134.086 63.8687C134.885 65.7897 136.993 68.1357 140.495 68.1357C144.218 68.1357 147.363 65.9427 147.363 60.6047V47.6167H144.354V48.7897H144.371ZM140.716 58.7857C138.523 58.7857 136.687 56.9497 136.687 54.4337C136.687 51.8837 138.523 50.0307 140.716 50.0307C142.875 50.0307 144.575 51.9007 144.575 54.4337C144.592 56.9497 142.892 58.7857 140.716 58.7857ZM182.179 39.9497H174.58V61.1997H177.759V53.1417H182.196C185.715 53.1417 189.166 50.5917 189.166 46.5457C189.166 42.4997 185.681 39.9497 182.179 39.9497ZM182.247 50.1837H177.742V42.8907H182.247C184.627 42.8907 185.97 44.8627 185.97 46.5287C185.97 48.1947 184.627 50.1837 182.247 50.1837ZM201.865 47.1407C199.57 47.1407 197.19 48.1607 196.204 50.3877L199.026 51.5607C199.621 50.3877 200.743 49.9967 201.916 49.9967C203.548 49.9967 205.231 50.9827 205.248 52.7337V52.9547C204.67 52.6317 203.446 52.1387 201.933 52.1387C198.89 52.1387 195.813 53.8047 195.813 56.9157C195.813 59.7547 198.295 61.5907 201.083 61.5907C203.208 61.5907 204.398 60.6387 205.129 59.5167H205.231V61.1657H208.291V53.0227C208.308 49.2487 205.486 47.1407 201.865 47.1407ZM201.474 58.7857C200.437 58.7857 198.992 58.2587 198.992 56.9837C198.992 55.3517 200.794 54.7227 202.358 54.7227C203.752 54.7227 204.415 55.0287 205.248 55.4367C205.01 57.3917 203.31 58.7857 201.474 58.7857ZM219.46 47.5997L215.822 56.8137H215.72L211.946 47.5997H208.529L214.19 60.4857L210.96 67.6427H214.275L222.996 47.5997H219.46ZM190.9 61.1997H194.079V39.9497H190.9V61.1997Z" fill="#25282D"/>
<path d="M29.782 21.6924C29.289 22.2194 29 23.0354 29 24.0724V61.6764C29 62.7304 29.289 63.5464 29.782 64.0564L29.901 64.1754L50.964 43.1294V42.8744V42.6194L29.901 21.5734L29.782 21.6924Z" fill="#25282D"/>
<path d="M57.9849 50.1504L50.9639 43.1295V42.8745V42.6195L57.9849 35.5984L58.1379 35.6835L66.4509 40.4094C68.8309 41.7524 68.8309 43.9625 66.4509 45.3225L58.1379 50.0485L57.9849 50.1504Z" fill="#25282D"/>
<path d="M58.138 50.0481L50.964 42.8741L29.782 64.0561C30.564 64.8891 31.856 64.9911 33.318 64.1581L58.138 50.0481Z" fill="#25282D"/>
<path d="M58.1384 35.7001L33.3014 21.5901C31.8394 20.7571 30.5474 20.8591 29.7654 21.6921L50.9644 42.8741L58.1384 35.7001Z" fill="#25282D"/>
<path fill-rule="evenodd" clip-rule="evenodd" d="M58.9824 51.4087L29.5157 21.9421L30.7178 20.74L60.1845 50.2067L58.9824 51.4087Z" fill="white"/>
<path fill-rule="evenodd" clip-rule="evenodd" d="M29.2552 63.5538L58.1074 34.5951L59.3117 35.7949L30.4595 64.7537L29.2552 63.5538Z" fill="white"/>
</g>
<defs>
<filter id="filter0_d_2251_1155" x="0" y="0" width="252" height="94" filterUnits="userSpaceOnUse" color-interpolation-filters="sRGB">
<feFlood flood-opacity="0" result="BackgroundImageFix"/>
<feColorMatrix in="SourceAlpha" type="matrix" values="0 0 0 0 0 0 0 0 0 0 0 0 0 0 0 0 0 0 127 0" result="hardAlpha"/>
<feOffset dy="4"/>
<feGaussianBlur stdDeviation="6"/>
<feComposite in2="hardAlpha" operator="out"/>
<feColorMatrix type="matrix" values="0 0 0 0 0.53151 0 0 0 0 0.318906 0 0 0 0 0 0 0 0 0.15 0"/>
<feBlend mode="normal" in2="BackgroundImageFix" result="effect1_dropShadow_2251_1155"/>
<feBlend mode="normal" in="SourceGraphic" in2="effect1_dropShadow_2251_1155" result="shape"/>
</filter>
</defs>
</svg>
