<svg width="228" height="70" viewBox="0 0 228 70" fill="none" xmlns="http://www.w3.org/2000/svg">
<rect x="1" y="1" width="226" height="68" rx="8" fill="white" stroke="#25282D"/>
<path d="M74.962 18.07C74.71 17.5847 74.36 17.2207 73.912 16.978C73.464 16.726 72.946 16.6 72.358 16.6C71.714 16.6 71.14 16.7447 70.636 17.034C70.132 17.3233 69.7353 17.734 69.446 18.266C69.166 18.798 69.026 19.414 69.026 20.114C69.026 20.814 69.166 21.4347 69.446 21.976C69.7353 22.508 70.132 22.9187 70.636 23.208C71.14 23.4973 71.714 23.642 72.358 23.642C73.226 23.642 73.9307 23.3993 74.472 22.914C75.0133 22.4287 75.3447 21.7707 75.466 20.94H71.812V19.666H77.174V20.912C77.0713 21.668 76.8007 22.3633 76.362 22.998C75.9327 23.6327 75.368 24.1413 74.668 24.524C73.9773 24.8973 73.2073 25.084 72.358 25.084C71.4433 25.084 70.608 24.874 69.852 24.454C69.096 24.0247 68.494 23.432 68.046 22.676C67.6073 21.92 67.388 21.066 67.388 20.114C67.388 19.162 67.6073 18.308 68.046 17.552C68.494 16.796 69.096 16.208 69.852 15.788C70.6173 15.3587 71.4527 15.144 72.358 15.144C73.394 15.144 74.3133 15.4007 75.116 15.914C75.928 16.418 76.516 17.1367 76.88 18.07H74.962ZM85.8181 20.954C85.8181 21.2433 85.7995 21.5047 85.7621 21.738H79.8681C79.9148 22.354 80.1435 22.8487 80.5541 23.222C80.9648 23.5953 81.4688 23.782 82.0661 23.782C82.9248 23.782 83.5315 23.4227 83.8861 22.704H85.6081C85.3748 23.4133 84.9501 23.9967 84.3341 24.454C83.7275 24.902 82.9715 25.126 82.0661 25.126C81.3288 25.126 80.6661 24.9627 80.0781 24.636C79.4995 24.3 79.0421 23.8333 78.7061 23.236C78.3795 22.6293 78.2161 21.9293 78.2161 21.136C78.2161 20.3427 78.3748 19.6473 78.6921 19.05C79.0188 18.4433 79.4715 17.9767 80.0501 17.65C80.6381 17.3233 81.3101 17.16 82.0661 17.16C82.7941 17.16 83.4428 17.3187 84.0121 17.636C84.5815 17.9533 85.0248 18.4013 85.3421 18.98C85.6595 19.5493 85.8181 20.2073 85.8181 20.954ZM84.1521 20.45C84.1428 19.862 83.9328 19.3907 83.5221 19.036C83.1115 18.6813 82.6028 18.504 81.9961 18.504C81.4455 18.504 80.9741 18.6813 80.5821 19.036C80.1901 19.3813 79.9568 19.8527 79.8821 20.45H84.1521ZM89.2507 18.588V22.858C89.2507 23.1473 89.3161 23.3573 89.4467 23.488C89.5867 23.6093 89.8201 23.67 90.1467 23.67H91.1267V25H89.8667C89.1481 25 88.5974 24.832 88.2147 24.496C87.8321 24.16 87.6407 23.614 87.6407 22.858V18.588H86.7307V17.286H87.6407V15.368H89.2507V17.286H91.1267V18.588H89.2507ZM97.0464 16.264C96.7571 16.264 96.5144 16.166 96.3184 15.97C96.1224 15.774 96.0244 15.5313 96.0244 15.242C96.0244 14.9527 96.1224 14.71 96.3184 14.514C96.5144 14.318 96.7571 14.22 97.0464 14.22C97.3264 14.22 97.5644 14.318 97.7604 14.514C97.9564 14.71 98.0544 14.9527 98.0544 15.242C98.0544 15.5313 97.9564 15.774 97.7604 15.97C97.5644 16.166 97.3264 16.264 97.0464 16.264ZM97.8304 17.286V25H96.2344V17.286H97.8304ZM101.788 18.588V22.858C101.788 23.1473 101.853 23.3573 101.984 23.488C102.124 23.6093 102.357 23.67 102.684 23.67H103.664V25H102.404C101.685 25 101.135 24.832 100.752 24.496C100.369 24.16 100.178 23.614 100.178 22.858V18.588H99.2679V17.286H100.178V15.368H101.788V17.286H103.664V18.588H101.788ZM112.118 25.126C111.39 25.126 110.732 24.9627 110.144 24.636C109.556 24.3 109.094 23.8333 108.758 23.236C108.422 22.6293 108.254 21.9293 108.254 21.136C108.254 20.352 108.426 19.6567 108.772 19.05C109.117 18.4433 109.588 17.9767 110.186 17.65C110.783 17.3233 111.45 17.16 112.188 17.16C112.925 17.16 113.592 17.3233 114.19 17.65C114.787 17.9767 115.258 18.4433 115.604 19.05C115.949 19.6567 116.122 20.352 116.122 21.136C116.122 21.92 115.944 22.6153 115.59 23.222C115.235 23.8287 114.75 24.3 114.134 24.636C113.527 24.9627 112.855 25.126 112.118 25.126ZM112.118 23.74C112.528 23.74 112.911 23.642 113.266 23.446C113.63 23.25 113.924 22.956 114.148 22.564C114.372 22.172 114.484 21.696 114.484 21.136C114.484 20.576 114.376 20.1047 114.162 19.722C113.947 19.33 113.662 19.036 113.308 18.84C112.953 18.644 112.57 18.546 112.16 18.546C111.749 18.546 111.366 18.644 111.012 18.84C110.666 19.036 110.391 19.33 110.186 19.722C109.98 20.1047 109.878 20.576 109.878 21.136C109.878 21.9667 110.088 22.6107 110.508 23.068C110.937 23.516 111.474 23.74 112.118 23.74ZM121.591 17.16C122.198 17.16 122.739 17.286 123.215 17.538C123.701 17.79 124.079 18.1633 124.349 18.658C124.62 19.1527 124.755 19.75 124.755 20.45V25H123.173V20.688C123.173 19.9973 123.001 19.47 122.655 19.106C122.31 18.7327 121.839 18.546 121.241 18.546C120.644 18.546 120.168 18.7327 119.813 19.106C119.468 19.47 119.295 19.9973 119.295 20.688V25H117.699V17.286H119.295V18.168C119.557 17.8507 119.888 17.6033 120.289 17.426C120.7 17.2487 121.134 17.16 121.591 17.16Z" fill="#25282D"/>
<path d="M112.94 39.1747C108.945 39.1747 105.681 42.2177 105.681 46.3997C105.681 50.5647 108.945 53.6247 112.94 53.6247C116.935 53.6247 120.199 50.5647 120.199 46.3997C120.199 42.2177 116.935 39.1747 112.94 39.1747ZM112.94 50.7857C110.747 50.7857 108.86 48.9837 108.86 46.3997C108.86 43.7987 110.747 42.0137 112.94 42.0137C115.133 42.0137 117.02 43.7987 117.02 46.3997C117.02 48.9837 115.116 50.7857 112.94 50.7857ZM97.096 39.1747C93.101 39.1747 89.837 42.2177 89.837 46.3997C89.837 50.5647 93.101 53.6247 97.096 53.6247C101.091 53.6247 104.355 50.5647 104.355 46.3997C104.355 42.2177 101.091 39.1747 97.096 39.1747ZM97.096 50.7857C94.903 50.7857 93.016 48.9837 93.016 46.3997C93.016 43.7987 94.903 42.0137 97.096 42.0137C99.289 42.0137 101.176 43.7987 101.176 46.3997C101.176 48.9837 99.289 50.7857 97.096 50.7857ZM78.26 41.4017V44.4617H85.604C85.383 46.1787 84.805 47.4537 83.938 48.3207C82.867 49.3917 81.201 50.5647 78.277 50.5647C73.755 50.5647 70.219 46.9267 70.219 42.4047C70.219 37.8827 73.755 34.2447 78.277 34.2447C80.708 34.2447 82.493 35.1967 83.802 36.4377L85.961 34.2787C84.125 32.5277 81.694 31.1847 78.26 31.1847C72.072 31.1847 66.87 36.2167 66.87 42.4217C66.87 48.6097 72.072 53.6587 78.26 53.6587C81.609 53.6587 84.125 52.5707 86.097 50.5137C88.12 48.4907 88.749 45.6347 88.749 43.3397C88.749 42.6257 88.698 41.9627 88.579 41.4187H78.26V41.4017ZM155.287 43.7817C154.692 42.1667 152.856 39.1747 149.099 39.1747C145.376 39.1747 142.282 42.0987 142.282 46.3997C142.282 50.4457 145.342 53.6247 149.456 53.6247C152.771 53.6247 154.692 51.6017 155.474 50.4287L153.009 48.7797C152.193 49.9867 151.071 50.7857 149.456 50.7857C147.841 50.7857 146.685 50.0377 145.954 48.5927L155.627 44.5977L155.287 43.7817ZM145.427 46.1957C145.342 43.4077 147.586 41.9797 149.201 41.9797C150.459 41.9797 151.53 42.6087 151.887 43.5097L145.427 46.1957ZM137.573 53.1997H140.752V31.9497H137.573V53.1997ZM132.371 40.7897H132.252C131.538 39.9397 130.178 39.1747 128.444 39.1747C124.823 39.1747 121.508 42.3537 121.508 46.4337C121.508 50.4797 124.823 53.6417 128.444 53.6417C130.161 53.6417 131.538 52.8767 132.252 51.9927H132.354V53.0297C132.354 55.8007 130.875 57.2797 128.495 57.2797C126.557 57.2797 125.35 55.8857 124.857 54.7127L122.086 55.8687C122.885 57.7897 124.993 60.1357 128.495 60.1357C132.218 60.1357 135.363 57.9427 135.363 52.6047V39.6167H132.354V40.7897H132.371ZM128.716 50.7857C126.523 50.7857 124.687 48.9497 124.687 46.4337C124.687 43.8837 126.523 42.0307 128.716 42.0307C130.875 42.0307 132.575 43.9007 132.575 46.4337C132.592 48.9497 130.892 50.7857 128.716 50.7857ZM170.179 31.9497H162.58V53.1997H165.759V45.1417H170.196C173.715 45.1417 177.166 42.5917 177.166 38.5457C177.166 34.4997 173.681 31.9497 170.179 31.9497ZM170.247 42.1837H165.742V34.8907H170.247C172.627 34.8907 173.97 36.8627 173.97 38.5287C173.97 40.1947 172.627 42.1837 170.247 42.1837ZM189.865 39.1407C187.57 39.1407 185.19 40.1607 184.204 42.3877L187.026 43.5607C187.621 42.3877 188.743 41.9967 189.916 41.9967C191.548 41.9967 193.231 42.9827 193.248 44.7337V44.9547C192.67 44.6317 191.446 44.1387 189.933 44.1387C186.89 44.1387 183.813 45.8047 183.813 48.9157C183.813 51.7547 186.295 53.5907 189.083 53.5907C191.208 53.5907 192.398 52.6387 193.129 51.5167H193.231V53.1657H196.291V45.0227C196.308 41.2487 193.486 39.1407 189.865 39.1407ZM189.474 50.7857C188.437 50.7857 186.992 50.2587 186.992 48.9837C186.992 47.3517 188.794 46.7227 190.358 46.7227C191.752 46.7227 192.415 47.0287 193.248 47.4367C193.01 49.3917 191.31 50.7857 189.474 50.7857ZM207.46 39.5997L203.822 48.8137H203.72L199.946 39.5997H196.529L202.19 52.4857L198.96 59.6427H202.275L210.996 39.5997H207.46ZM178.9 53.1997H182.079V31.9497H178.9V53.1997Z" fill="#25282D"/>
<path d="M17.782 13.6924C17.289 14.2194 17 15.0354 17 16.0724V53.6764C17 54.7304 17.289 55.5464 17.782 56.0564L17.901 56.1754L38.964 35.1294V34.8744V34.6194L17.901 13.5734L17.782 13.6924Z" fill="#25282D"/>
<path d="M45.9849 42.1504L38.9639 35.1295V34.8745V34.6195L45.9849 27.5984L46.1379 27.6835L54.4509 32.4094C56.8309 33.7524 56.8309 35.9625 54.4509 37.3225L46.1379 42.0485L45.9849 42.1504Z" fill="#25282D"/>
<path d="M46.138 42.0481L38.964 34.8741L17.782 56.0561C18.564 56.8891 19.856 56.9911 21.318 56.1581L46.138 42.0481Z" fill="#25282D"/>
<path d="M46.1384 27.7001L21.3014 13.5901C19.8394 12.7571 18.5474 12.8591 17.7654 13.6921L38.9644 34.8741L46.1384 27.7001Z" fill="#25282D"/>
<path fill-rule="evenodd" clip-rule="evenodd" d="M46.9824 43.4087L17.5157 13.9421L18.7178 12.74L48.1845 42.2067L46.9824 43.4087Z" fill="white"/>
<path fill-rule="evenodd" clip-rule="evenodd" d="M17.2552 55.5538L46.1074 26.5951L47.3117 27.7949L18.4595 56.7537L17.2552 55.5538Z" fill="white"/>
</svg>
