<svg width="228" height="70" viewBox="0 0 228 70" fill="none" xmlns="http://www.w3.org/2000/svg">
<path d="M15.4831 68.9964C14.9004 68.9964 14.3317 68.9895 13.7534 68.9774C12.5556 68.9629 11.3606 68.866 10.1782 68.6875C9.07567 68.511 8.00761 68.1827 7.00925 67.7135C6.02005 67.2481 5.11781 66.6379 4.33711 65.9063C3.54511 65.1833 2.88574 64.3447 2.38511 63.4238C1.87897 62.4969 1.52869 61.5033 1.34648 60.4778C1.1497 59.3758 1.04324 58.2616 1.028 57.1446C1.01588 56.7697 1 55.5214 1 55.5214V14.4559C1 14.4559 1.01691 13.2268 1.0281 12.8657C1.04269 11.7505 1.14853 10.638 1.34472 9.53774C1.52727 8.50939 1.87782 7.51299 2.38423 6.58305C2.88302 5.66277 3.53873 4.82355 4.32596 4.09794C5.11231 3.36543 6.01743 2.75209 7.00831 2.28031C8.00438 1.81257 9.07042 1.48661 10.1707 1.31335C11.357 1.13304 12.5562 1.03555 13.7582 1.02171L15.4841 1H212.057L213.803 1.02258C214.994 1.03573 216.182 1.13235 217.358 1.31161C218.469 1.48704 219.546 1.81527 220.554 2.28552C222.539 3.2363 224.154 4.74054 225.173 6.58739C225.672 7.51091 226.017 8.49918 226.197 9.51865C226.395 10.6279 226.507 11.7492 226.529 12.8735C226.535 13.377 226.535 13.9177 226.535 14.4559C226.55 15.1225 226.55 15.757 226.55 16.3968V53.6013C226.55 54.2472 226.55 54.8774 226.535 55.5127C226.535 56.0908 226.535 56.6204 226.527 57.1654C226.505 58.2697 226.396 59.3709 226.201 60.4604C226.022 61.4933 225.674 62.4946 225.168 63.4291C224.663 64.34 224.008 65.1713 223.225 65.8924C222.444 66.628 221.54 67.2418 220.548 67.7101C219.544 68.183 218.468 68.5125 217.358 68.6875C216.175 68.867 214.98 68.9639 213.782 68.9774C213.222 68.9895 212.636 68.9964 212.066 68.9964L209.993 69L15.4831 68.9964Z" fill="white" stroke="#25282D"/>
<path d="M52.3544 33.4078C52.3743 31.8649 52.7841 30.352 53.5458 29.01C54.3075 27.668 55.3962 26.5405 56.7108 25.7323C55.8757 24.5397 54.774 23.5582 53.4932 22.8658C52.2125 22.1734 50.7879 21.7891 49.3327 21.7436C46.2284 21.4178 43.219 23.6011 41.6371 23.6011C40.0246 23.6011 37.5891 21.776 34.9664 21.8299C33.27 21.8847 31.6167 22.378 30.1676 23.2618C28.7185 24.1455 27.523 25.3895 26.6977 26.8727C23.1226 33.0626 25.7893 42.1597 29.214 47.1632C30.9275 49.6132 32.9301 52.35 35.5504 52.2529C38.1145 52.1466 39.0722 50.6179 42.1673 50.6179C45.2337 50.6179 46.1321 52.2529 48.8056 52.1912C51.5571 52.1466 53.2906 49.7303 54.944 47.257C56.1751 45.5113 57.1225 43.5819 57.7509 41.5402C56.1524 40.8641 54.7883 39.7324 53.8286 38.2863C52.869 36.8401 52.3563 35.1434 52.3544 33.4078Z" fill="#25282D" stroke="#25282D"/>
<path d="M47.3052 18.4528C48.8054 16.6519 49.5445 14.3371 49.3655 12C47.0735 12.2407 44.9564 13.3361 43.436 15.068C42.6926 15.914 42.1232 16.8983 41.7604 17.9645C41.3976 19.0307 41.2485 20.158 41.3217 21.2819C42.4681 21.2937 43.6022 21.0452 44.6386 20.5551C45.6751 20.0651 46.5868 19.3463 47.3052 18.4528Z" fill="#25282D" stroke="#25282D"/>
<path d="M83.1176 46.2963H74.7031L72.6823 52.263H69.1183L77.0884 30.1877H80.7913L88.7613 52.263H85.1365L83.1176 46.2963ZM75.5746 43.5429H82.2444L78.9564 33.8594H78.8643L75.5746 43.5429Z" fill="#25282D"/>
<path d="M105.973 44.2166C105.973 49.2181 103.297 52.4314 99.2568 52.4314C98.2335 52.485 97.2157 52.2492 96.3202 51.7512C95.4246 51.2532 94.6873 50.5131 94.1928 49.6156H94.1164V57.5874H90.8127V36.1684H94.0105V38.8453H94.0713C94.5885 37.9521 95.3382 37.2158 96.2406 36.7148C97.143 36.2137 98.1643 35.9667 99.196 36C103.281 36 105.973 39.229 105.973 44.2166ZM102.578 44.2166C102.578 40.9581 100.894 38.8158 98.3245 38.8158C95.8004 38.8158 94.1025 41.0032 94.1025 44.2166C94.1025 47.4595 95.8004 49.6312 98.3245 49.6312C100.894 49.6312 102.578 47.5046 102.578 44.2166H102.578Z" fill="#25282D"/>
<path d="M123.689 44.2166C123.689 49.2181 121.011 52.4314 116.971 52.4314C115.948 52.485 114.93 52.2492 114.035 51.7512C113.139 51.2532 112.402 50.5131 111.907 49.6156H111.831V57.5874H108.527V36.1684H111.725V38.8453H111.786C112.303 37.9521 113.053 37.2158 113.955 36.7148C114.857 36.2137 115.879 35.9667 116.91 36C120.995 36 123.689 39.229 123.689 44.2166ZM120.292 44.2166C120.292 40.9581 118.608 38.8158 116.039 38.8158C113.515 38.8158 111.817 41.0032 111.817 44.2166C111.817 47.4595 113.515 49.6312 116.039 49.6312C118.608 49.6312 120.292 47.5046 120.292 44.2166Z" fill="#25282D"/>
<path d="M135.395 46.1123C135.64 48.3014 137.766 49.7388 140.673 49.7388C143.457 49.7388 145.46 48.3013 145.46 46.3275C145.46 44.614 144.252 43.5881 141.391 42.8849L138.53 42.1957C134.477 41.2166 132.595 39.3209 132.595 36.2447C132.595 32.4358 135.914 29.8196 140.626 29.8196C145.292 29.8196 148.49 32.4358 148.597 36.2447H145.263C145.063 34.0416 143.242 32.7119 140.581 32.7119C137.919 32.7119 136.098 34.0573 136.098 36.0155C136.098 37.5762 137.261 38.4945 140.107 39.1976L142.539 39.7948C147.068 40.8659 148.948 42.6853 148.948 45.9142C148.948 50.0442 145.66 52.6309 140.428 52.6309C135.532 52.6309 132.227 50.105 132.013 46.1121L135.395 46.1123Z" fill="#25282D"/>
<path d="M156.081 32.3594V36.1683H159.142V38.7845H156.081V47.6572C156.081 49.0356 156.694 49.678 158.04 49.678C158.403 49.6716 158.766 49.6461 159.126 49.6015V52.2021C158.521 52.3151 157.907 52.3663 157.291 52.3549C154.033 52.3549 152.762 51.131 152.762 48.0096V38.7845H150.422V36.1683H152.762V32.3594H156.081Z" fill="#25282D"/>
<path d="M160.913 44.2164C160.913 39.1525 163.896 35.9703 168.546 35.9703C173.213 35.9703 176.182 39.1524 176.182 44.2164C176.182 49.2943 173.229 52.4625 168.546 52.4625C163.866 52.4625 160.913 49.2943 160.913 44.2164ZM172.815 44.2164C172.815 40.7427 171.223 38.6924 168.546 38.6924C165.87 38.6924 164.278 40.7583 164.278 44.2164C164.278 47.7041 165.87 49.7387 168.546 49.7387C171.223 49.7387 172.815 47.7041 172.815 44.2164H172.815Z" fill="#25282D"/>
<path d="M178.904 36.1685H182.055V38.9079H182.132C182.345 38.0523 182.846 37.2962 183.551 36.7667C184.256 36.2371 185.122 35.9664 186.003 36.0001C186.384 35.9987 186.763 36.0401 187.135 36.1233V39.2134C186.654 39.0666 186.153 38.9991 185.65 39.0138C185.17 38.9943 184.692 39.0789 184.248 39.2618C183.804 39.4447 183.404 39.7216 183.077 40.0734C182.75 40.4252 182.503 40.8436 182.353 41.2998C182.203 41.7561 182.153 42.2395 182.208 42.7167V52.2631H178.904L178.904 36.1685Z" fill="#25282D"/>
<path d="M202.368 47.5357C201.923 50.4574 199.078 52.4625 195.437 52.4625C190.755 52.4625 187.849 49.3255 187.849 44.2928C187.849 39.2445 190.771 35.9703 195.299 35.9703C199.752 35.9703 202.552 39.0292 202.552 43.9092V45.041H191.184V45.2407C191.132 45.833 191.206 46.4297 191.402 46.9912C191.598 47.5526 191.911 48.066 192.32 48.4972C192.73 48.9284 193.226 49.2675 193.777 49.492C194.328 49.7165 194.92 49.8213 195.514 49.7995C196.295 49.8726 197.078 49.6918 197.748 49.2839C198.417 48.8761 198.938 48.2629 199.231 47.5357L202.368 47.5357ZM191.2 42.7321H199.246C199.276 42.1995 199.195 41.6666 199.009 41.1667C198.823 40.6668 198.536 40.2107 198.165 39.8272C197.794 39.4436 197.348 39.1408 196.855 38.9378C196.362 38.7347 195.832 38.6358 195.299 38.6473C194.761 38.6441 194.227 38.7474 193.73 38.9514C193.232 39.1554 192.779 39.4559 192.398 39.8357C192.017 40.2155 191.715 40.667 191.509 41.1641C191.304 41.6612 191.198 42.1942 191.2 42.7321V42.7321Z" fill="#25282D"/>
<path d="M75.1609 13.5711C75.8535 13.5214 76.5485 13.626 77.1957 13.8774C77.843 14.1288 78.4264 14.5208 78.9039 15.025C79.3814 15.5292 79.741 16.133 79.9568 16.7931C80.1726 17.4531 80.2392 18.1527 80.1519 18.8416C80.1519 22.2303 78.3204 24.1782 75.1609 24.1782H71.3295V13.5711H75.1609ZM72.9769 22.6781H74.9768C75.4717 22.7077 75.967 22.6266 76.4266 22.4406C76.8862 22.2546 77.2986 21.9685 77.6337 21.6031C77.9687 21.2377 78.2181 20.8021 78.3636 20.3281C78.5092 19.8542 78.5472 19.3537 78.4749 18.8632C78.5419 18.3747 78.5001 17.8773 78.3523 17.4068C78.2046 16.9363 77.9546 16.5044 77.6202 16.1418C77.2859 15.7793 76.8756 15.4952 76.4186 15.3099C75.9615 15.1246 75.4692 15.0427 74.9768 15.07H72.9769V22.6781Z" fill="#25282D"/>
<path d="M82.0135 20.1723C81.9631 19.6463 82.0233 19.1155 82.1901 18.6141C82.357 18.1127 82.6267 17.6516 82.9822 17.2606C83.3376 16.8695 83.7708 16.5571 84.2541 16.3432C84.7374 16.1294 85.26 16.019 85.7884 16.019C86.3169 16.019 86.8395 16.1294 87.3228 16.3432C87.806 16.5571 88.2393 16.8695 88.5947 17.2606C88.9502 17.6516 89.2199 18.1127 89.3867 18.6141C89.5536 19.1155 89.6137 19.6463 89.5634 20.1723C89.6147 20.6989 89.5552 21.2304 89.3889 21.7326C89.2225 22.2349 88.9529 22.6968 88.5973 23.0886C88.2418 23.4804 87.8082 23.7935 87.3245 24.0078C86.8407 24.2221 86.3175 24.3328 85.7884 24.3328C85.2594 24.3328 84.7361 24.2221 84.2524 24.0078C83.7686 23.7935 83.3351 23.4804 82.9795 23.0886C82.624 22.6968 82.3544 22.2349 82.188 21.7326C82.0216 21.2304 81.9622 20.6989 82.0135 20.1723ZM87.9385 20.1723C87.9385 18.4372 87.159 17.4225 85.791 17.4225C84.4179 17.4225 83.6454 18.4372 83.6454 20.1723C83.6454 21.9214 84.4179 22.9283 85.791 22.9283C87.159 22.9283 87.9385 21.9144 87.9385 20.1723H87.9385Z" fill="#25282D"/>
<path d="M99.5988 24.1783H97.9601L96.3056 18.2827H96.1806L94.5332 24.1783H92.91L90.7035 16.1735H92.3058L93.7398 22.2816H93.8579L95.5036 16.1735H97.0191L98.6649 22.2816H98.7899L100.217 16.1735H101.797L99.5988 24.1783Z" fill="#25282D"/>
<path d="M103.652 16.1736H105.173V17.4452H105.291C105.491 16.9885 105.829 16.6056 106.257 16.35C106.685 16.0943 107.182 15.9786 107.679 16.019C108.069 15.9898 108.46 16.0485 108.824 16.1909C109.187 16.3333 109.514 16.5557 109.781 16.8416C110.047 17.1275 110.245 17.4697 110.361 17.8426C110.477 18.2156 110.507 18.6099 110.45 18.9963V24.1783H108.87V19.393C108.87 18.1066 108.311 17.4669 107.143 17.4669C106.879 17.4546 106.615 17.4996 106.369 17.5988C106.124 17.6981 105.903 17.8492 105.721 18.0419C105.54 18.2346 105.402 18.4642 105.317 18.7151C105.233 18.966 105.204 19.2322 105.232 19.4954V24.1784H103.652L103.652 16.1736Z" fill="#25282D"/>
<path d="M112.967 13.0486H114.547V24.1783H112.967V13.0486Z" fill="#25282D"/>
<path d="M116.744 20.1725C116.694 19.6464 116.754 19.1156 116.921 18.6142C117.088 18.1127 117.358 17.6517 117.713 17.2606C118.069 16.8695 118.502 16.5571 118.985 16.3432C119.469 16.1294 119.991 16.019 120.52 16.019C121.048 16.019 121.571 16.1294 122.054 16.3432C122.537 16.5571 122.971 16.8695 123.326 17.2606C123.682 17.6517 123.951 18.1127 124.118 18.6142C124.285 19.1156 124.345 19.6464 124.295 20.1725C124.346 20.6991 124.287 21.2306 124.12 21.7328C123.954 22.2351 123.684 22.6969 123.329 23.0887C122.973 23.4806 122.54 23.7937 122.056 24.0079C121.572 24.2222 121.049 24.3329 120.52 24.3329C119.991 24.3329 119.467 24.2222 118.984 24.0079C118.5 23.7937 118.066 23.4806 117.711 23.0887C117.355 22.6969 117.085 22.2351 116.919 21.7328C116.753 21.2306 116.693 20.6991 116.744 20.1725ZM122.669 20.1725C122.669 18.4373 121.89 17.4226 120.522 17.4226C119.149 17.4226 118.376 18.4373 118.376 20.1725C118.376 21.9215 119.149 22.9284 120.522 22.9284C121.89 22.9284 122.669 21.9146 122.669 20.1725H122.669Z" fill="#25282D"/>
<path d="M125.957 21.9145C125.957 20.4736 127.03 19.6429 128.935 19.5249L131.103 19.3999V18.7089C131.103 17.8635 130.544 17.3861 129.464 17.3861C128.582 17.3861 127.971 17.7099 127.796 18.2758H126.266C126.428 16.9009 127.721 16.019 129.537 16.019C131.544 16.019 132.676 17.018 132.676 18.7089V24.1783H131.155V23.0533H131.03C130.776 23.4569 130.42 23.7858 129.998 24.0066C129.575 24.2274 129.102 24.3322 128.626 24.3102C128.29 24.3451 127.95 24.3093 127.629 24.2049C127.307 24.1006 127.011 23.93 126.76 23.7043C126.509 23.4786 126.307 23.2027 126.169 22.8945C126.031 22.5862 125.959 22.2523 125.957 21.9145ZM131.103 21.2305V20.5613L129.148 20.6863C128.046 20.76 127.546 21.135 127.546 21.8407C127.546 22.5611 128.171 22.9804 129.03 22.9804C129.282 23.0059 129.536 22.9805 129.778 22.9056C130.02 22.8308 130.244 22.7081 130.438 22.5449C130.631 22.3816 130.79 22.1811 130.904 21.9553C131.018 21.7295 131.086 21.483 131.103 21.2305Z" fill="#25282D"/>
<path d="M134.752 20.1724C134.752 17.6431 136.052 16.0407 138.075 16.0407C138.575 16.0177 139.072 16.1375 139.506 16.3862C139.941 16.6348 140.296 17.0021 140.53 17.4451H140.648V13.0486H142.227V24.1783H140.714V22.9136H140.589C140.337 23.3535 139.97 23.7162 139.526 23.9624C139.083 24.2086 138.581 24.3289 138.075 24.3102C136.038 24.3103 134.752 22.7079 134.752 20.1724ZM136.384 20.1724C136.384 21.8703 137.184 22.8919 138.523 22.8919C139.854 22.8919 140.677 21.8555 140.677 20.1794C140.677 18.5111 139.846 17.4599 138.523 17.4599C137.193 17.4599 136.384 18.4885 136.384 20.1724H136.384Z" fill="#25282D"/>
<path d="M148.763 20.1723C148.713 19.6463 148.773 19.1155 148.94 18.6141C149.107 18.1127 149.377 17.6516 149.732 17.2606C150.088 16.8695 150.521 16.5571 151.004 16.3432C151.487 16.1294 152.01 16.019 152.538 16.019C153.067 16.019 153.59 16.1294 154.073 16.3432C154.556 16.5571 154.989 16.8695 155.345 17.2606C155.7 17.6516 155.97 18.1127 156.137 18.6141C156.304 19.1155 156.364 19.6463 156.313 20.1723C156.365 20.6989 156.305 21.2304 156.139 21.7326C155.972 22.2349 155.703 22.6968 155.347 23.0886C154.992 23.4804 154.558 23.7935 154.074 24.0078C153.591 24.2221 153.068 24.3328 152.538 24.3328C152.009 24.3328 151.486 24.2221 151.002 24.0078C150.519 23.7935 150.085 23.4804 149.73 23.0886C149.374 22.6968 149.104 22.2349 148.938 21.7326C148.772 21.2304 148.712 20.6989 148.763 20.1723ZM154.688 20.1723C154.688 18.4372 153.909 17.4225 152.541 17.4225C151.168 17.4225 150.395 18.4372 150.395 20.1723C150.395 21.9214 151.168 22.9283 152.541 22.9283C153.909 22.9283 154.688 21.9144 154.688 20.1723Z" fill="#25282D"/>
<path d="M158.432 16.1736H159.953V17.4452H160.071C160.272 16.9885 160.609 16.6056 161.038 16.35C161.466 16.0943 161.963 15.9786 162.46 16.019C162.85 15.9898 163.241 16.0485 163.604 16.1909C163.968 16.3333 164.295 16.5557 164.561 16.8416C164.827 17.1275 165.026 17.4697 165.142 17.8426C165.257 18.2156 165.288 18.6099 165.231 18.9963V24.1783H163.651V19.393C163.651 18.1066 163.092 17.4669 161.924 17.4669C161.659 17.4546 161.395 17.4996 161.15 17.5988C160.904 17.6981 160.683 17.8492 160.502 18.0419C160.32 18.2346 160.182 18.4642 160.098 18.7151C160.014 18.966 159.984 19.2322 160.012 19.4954V24.1784H158.432V16.1736Z" fill="#25282D"/>
<path d="M174.158 14.1805V16.2099H175.892V17.5406H174.158V21.6567C174.158 22.4952 174.503 22.8624 175.29 22.8624C175.491 22.8617 175.692 22.8496 175.892 22.8259V24.1418C175.609 24.1926 175.321 24.2196 175.033 24.2225C173.276 24.2225 172.576 23.6045 172.576 22.0612V17.5405H171.306V16.2099H172.576V14.1805H174.158Z" fill="#25282D"/>
<path d="M178.051 13.0486H179.617V17.4599H179.742C179.952 16.9989 180.299 16.6139 180.735 16.3573C181.172 16.1007 181.678 15.985 182.182 16.0259C182.57 16.0048 182.957 16.0695 183.317 16.2154C183.676 16.3612 183.999 16.5846 184.263 16.8697C184.526 17.1547 184.723 17.4943 184.84 17.8643C184.957 18.2343 184.991 18.6256 184.939 19.0101V24.1783H183.358V19.3999C183.358 18.1213 182.762 17.4737 181.646 17.4737C181.375 17.4515 181.102 17.4888 180.846 17.5831C180.59 17.6774 180.358 17.8265 180.166 18.0198C179.974 18.2131 179.827 18.446 179.735 18.7022C179.642 18.9584 179.606 19.2318 179.631 19.5032V24.1783H178.051L178.051 13.0486Z" fill="#25282D"/>
<path d="M194.15 22.0171C193.935 22.7486 193.47 23.3815 192.836 23.8048C192.202 24.2282 191.439 24.4151 190.681 24.3329C190.154 24.3468 189.63 24.2458 189.146 24.0369C188.661 23.828 188.228 23.5161 187.876 23.123C187.524 22.7299 187.262 22.2649 187.108 21.7604C186.954 21.2558 186.912 20.7238 186.984 20.2012C186.913 19.677 186.957 19.1438 187.11 18.6377C187.264 18.1317 187.525 17.6646 187.875 17.268C188.225 16.8715 188.656 16.5547 189.139 16.3392C189.622 16.1238 190.146 16.0146 190.674 16.0191C192.902 16.0191 194.245 17.5408 194.245 20.0545V20.6057H188.593V20.6942C188.568 20.988 188.605 21.2837 188.701 21.5623C188.798 21.841 188.951 22.0964 189.152 22.3124C189.352 22.5283 189.596 22.6998 189.867 22.8161C190.138 22.9324 190.43 22.9907 190.725 22.9874C191.103 23.0328 191.486 22.9648 191.825 22.792C192.164 22.6192 192.444 22.3494 192.629 22.017L194.15 22.0171ZM188.593 19.4373H192.636C192.656 19.1687 192.62 18.8988 192.529 18.6451C192.438 18.3914 192.296 18.1595 192.11 17.9642C191.925 17.7689 191.7 17.6146 191.451 17.5111C191.203 17.4077 190.935 17.3575 190.666 17.3637C190.393 17.3602 190.121 17.4115 189.868 17.5145C189.615 17.6175 189.385 17.7702 189.192 17.9634C188.999 18.1567 188.846 18.3867 188.744 18.6398C188.641 18.8929 188.589 19.1641 188.593 19.4373H188.593Z" fill="#25282D"/>
</svg>
