<svg width="228" height="70" viewBox="0 0 228 70" fill="none" xmlns="http://www.w3.org/2000/svg">
<rect x="1" y="1" width="226" height="68" rx="8" fill="#FFF3E0" stroke="#FEB027"/>
<path d="M74.9621 18.07C74.7101 17.5847 74.3601 17.2207 73.9121 16.978C73.4641 16.726 72.9461 16.6 72.3581 16.6C71.7141 16.6 71.1401 16.7447 70.6361 17.034C70.1321 17.3233 69.7355 17.734 69.4461 18.266C69.1661 18.798 69.0261 19.414 69.0261 20.114C69.0261 20.814 69.1661 21.4347 69.4461 21.976C69.7355 22.508 70.1321 22.9187 70.6361 23.208C71.1401 23.4973 71.7141 23.642 72.3581 23.642C73.2261 23.642 73.9308 23.3993 74.4721 22.914C75.0135 22.4287 75.3448 21.7707 75.4661 20.94H71.8121V19.666H77.1741V20.912C77.0715 21.668 76.8008 22.3633 76.3621 22.998C75.9328 23.6327 75.3681 24.1413 74.6681 24.524C73.9775 24.8973 73.2075 25.084 72.3581 25.084C71.4435 25.084 70.6081 24.874 69.8521 24.454C69.0961 24.0247 68.4941 23.432 68.0461 22.676C67.6075 21.92 67.3881 21.066 67.3881 20.114C67.3881 19.162 67.6075 18.308 68.0461 17.552C68.4941 16.796 69.0961 16.208 69.8521 15.788C70.6175 15.3587 71.4528 15.144 72.3581 15.144C73.3941 15.144 74.3135 15.4007 75.1161 15.914C75.9281 16.418 76.5161 17.1367 76.8801 18.07H74.9621ZM85.8182 20.954C85.8182 21.2433 85.7996 21.5047 85.7622 21.738H79.8682C79.9149 22.354 80.1436 22.8487 80.5542 23.222C80.9649 23.5953 81.4689 23.782 82.0662 23.782C82.9249 23.782 83.5316 23.4227 83.8862 22.704H85.6082C85.3749 23.4133 84.9502 23.9967 84.3342 24.454C83.7276 24.902 82.9716 25.126 82.0662 25.126C81.3289 25.126 80.6662 24.9627 80.0782 24.636C79.4996 24.3 79.0422 23.8333 78.7062 23.236C78.3796 22.6293 78.2162 21.9293 78.2162 21.136C78.2162 20.3427 78.3749 19.6473 78.6922 19.05C79.0189 18.4433 79.4716 17.9767 80.0502 17.65C80.6382 17.3233 81.3102 17.16 82.0662 17.16C82.7942 17.16 83.4429 17.3187 84.0122 17.636C84.5816 17.9533 85.0249 18.4013 85.3422 18.98C85.6596 19.5493 85.8182 20.2073 85.8182 20.954ZM84.1522 20.45C84.1429 19.862 83.9329 19.3907 83.5222 19.036C83.1116 18.6813 82.6029 18.504 81.9962 18.504C81.4456 18.504 80.9742 18.6813 80.5822 19.036C80.1902 19.3813 79.9569 19.8527 79.8822 20.45H84.1522ZM89.2509 18.588V22.858C89.2509 23.1473 89.3162 23.3573 89.4469 23.488C89.5869 23.6093 89.8202 23.67 90.1469 23.67H91.1269V25H89.8669C89.1482 25 88.5975 24.832 88.2149 24.496C87.8322 24.16 87.6409 23.614 87.6409 22.858V18.588H86.7309V17.286H87.6409V15.368H89.2509V17.286H91.1269V18.588H89.2509ZM98.0966 18.588V22.858C98.0966 23.1473 98.1619 23.3573 98.2926 23.488C98.4326 23.6093 98.6659 23.67 98.9926 23.67H99.9726V25H98.7126C97.9939 25 97.4432 24.832 97.0606 24.496C96.6779 24.16 96.4866 23.614 96.4866 22.858V18.588H95.5766V17.286H96.4866V15.368H98.0966V17.286H99.9726V18.588H98.0966ZM105.434 17.16C106.022 17.16 106.544 17.286 107.002 17.538C107.468 17.79 107.832 18.1633 108.094 18.658C108.364 19.1527 108.5 19.75 108.5 20.45V25H106.918V20.688C106.918 19.9973 106.745 19.47 106.4 19.106C106.054 18.7327 105.583 18.546 104.986 18.546C104.388 18.546 103.912 18.7327 103.558 19.106C103.212 19.47 103.04 19.9973 103.04 20.688V25H101.444V14.64H103.04V18.182C103.31 17.8553 103.651 17.6033 104.062 17.426C104.482 17.2487 104.939 17.16 105.434 17.16ZM117.605 20.954C117.605 21.2433 117.587 21.5047 117.549 21.738H111.655C111.702 22.354 111.931 22.8487 112.341 23.222C112.752 23.5953 113.256 23.782 113.853 23.782C114.712 23.782 115.319 23.4227 115.673 22.704H117.395C117.162 23.4133 116.737 23.9967 116.121 24.454C115.515 24.902 114.759 25.126 113.853 25.126C113.116 25.126 112.453 24.9627 111.865 24.636C111.287 24.3 110.829 23.8333 110.493 23.236C110.167 22.6293 110.003 21.9293 110.003 21.136C110.003 20.3427 110.162 19.6473 110.479 19.05C110.806 18.4433 111.259 17.9767 111.837 17.65C112.425 17.3233 113.097 17.16 113.853 17.16C114.581 17.16 115.23 17.3187 115.799 17.636C116.369 17.9533 116.812 18.4013 117.129 18.98C117.447 19.5493 117.605 20.2073 117.605 20.954ZM115.939 20.45C115.93 19.862 115.72 19.3907 115.309 19.036C114.899 18.6813 114.39 18.504 113.783 18.504C113.233 18.504 112.761 18.6813 112.369 19.036C111.977 19.3813 111.744 19.8527 111.669 20.45H115.939ZM124.409 18.434C124.679 18.0607 125.048 17.7573 125.515 17.524C125.991 17.2813 126.518 17.16 127.097 17.16C127.778 17.16 128.394 17.3233 128.945 17.65C129.495 17.9767 129.929 18.4433 130.247 19.05C130.564 19.6473 130.723 20.3333 130.723 21.108C130.723 21.8827 130.564 22.578 130.247 23.194C129.929 23.8007 129.491 24.2767 128.931 24.622C128.38 24.958 127.769 25.126 127.097 25.126C126.499 25.126 125.967 25.0093 125.501 24.776C125.043 24.5427 124.679 24.244 124.409 23.88V25H122.813V14.64H124.409V18.434ZM129.099 21.108C129.099 20.576 128.987 20.1187 128.763 19.736C128.548 19.344 128.259 19.05 127.895 18.854C127.54 18.6487 127.157 18.546 126.747 18.546C126.345 18.546 125.963 18.6487 125.599 18.854C125.244 19.0593 124.955 19.358 124.731 19.75C124.516 20.142 124.409 20.604 124.409 21.136C124.409 21.668 124.516 22.1347 124.731 22.536C124.955 22.928 125.244 23.2267 125.599 23.432C125.963 23.6373 126.345 23.74 126.747 23.74C127.157 23.74 127.54 23.6373 127.895 23.432C128.259 23.2173 128.548 22.9093 128.763 22.508C128.987 22.1067 129.099 21.64 129.099 21.108ZM139.371 20.954C139.371 21.2433 139.352 21.5047 139.315 21.738H133.421C133.468 22.354 133.696 22.8487 134.107 23.222C134.518 23.5953 135.022 23.782 135.619 23.782C136.478 23.782 137.084 23.4227 137.439 22.704H139.161C138.928 23.4133 138.503 23.9967 137.887 24.454C137.28 24.902 136.524 25.126 135.619 25.126C134.882 25.126 134.219 24.9627 133.631 24.636C133.052 24.3 132.595 23.8333 132.259 23.236C131.932 22.6293 131.769 21.9293 131.769 21.136C131.769 20.3427 131.928 19.6473 132.245 19.05C132.572 18.4433 133.024 17.9767 133.603 17.65C134.191 17.3233 134.863 17.16 135.619 17.16C136.347 17.16 136.996 17.3187 137.565 17.636C138.134 17.9533 138.578 18.4013 138.895 18.98C139.212 19.5493 139.371 20.2073 139.371 20.954ZM137.705 20.45C137.696 19.862 137.486 19.3907 137.075 19.036C136.664 18.6813 136.156 18.504 135.549 18.504C134.998 18.504 134.527 18.6813 134.135 19.036C133.743 19.3813 133.51 19.8527 133.435 20.45H137.705ZM142.804 18.588V22.858C142.804 23.1473 142.869 23.3573 143 23.488C143.14 23.6093 143.373 23.67 143.7 23.67H144.68V25H143.42C142.701 25 142.15 24.832 141.768 24.496C141.385 24.16 141.194 23.614 141.194 22.858V18.588H140.284V17.286H141.194V15.368H142.804V17.286H144.68V18.588H142.804ZM145.619 21.108C145.619 20.3333 145.777 19.6473 146.095 19.05C146.421 18.4527 146.86 17.9907 147.411 17.664C147.971 17.328 148.587 17.16 149.259 17.16C149.865 17.16 150.393 17.2813 150.841 17.524C151.298 17.7573 151.662 18.0513 151.933 18.406V17.286H153.543V25H151.933V23.852C151.662 24.216 151.293 24.5193 150.827 24.762C150.36 25.0047 149.828 25.126 149.231 25.126C148.568 25.126 147.961 24.958 147.411 24.622C146.86 24.2767 146.421 23.8007 146.095 23.194C145.777 22.578 145.619 21.8827 145.619 21.108ZM151.933 21.136C151.933 20.604 151.821 20.142 151.597 19.75C151.382 19.358 151.097 19.0593 150.743 18.854C150.388 18.6487 150.005 18.546 149.595 18.546C149.184 18.546 148.801 18.6487 148.447 18.854C148.092 19.05 147.803 19.344 147.579 19.736C147.364 20.1187 147.257 20.576 147.257 21.108C147.257 21.64 147.364 22.1067 147.579 22.508C147.803 22.9093 148.092 23.2173 148.447 23.432C148.811 23.6373 149.193 23.74 149.595 23.74C150.005 23.74 150.388 23.6373 150.743 23.432C151.097 23.2267 151.382 22.928 151.597 22.536C151.821 22.1347 151.933 21.668 151.933 21.136ZM162.622 25.126C161.894 25.126 161.236 24.9627 160.648 24.636C160.06 24.3 159.598 23.8333 159.262 23.236C158.926 22.6293 158.758 21.9293 158.758 21.136C158.758 20.352 158.93 19.6567 159.276 19.05C159.621 18.4433 160.092 17.9767 160.69 17.65C161.287 17.3233 161.954 17.16 162.692 17.16C163.429 17.16 164.096 17.3233 164.694 17.65C165.291 17.9767 165.762 18.4433 166.108 19.05C166.453 19.6567 166.626 20.352 166.626 21.136C166.626 21.92 166.448 22.6153 166.094 23.222C165.739 23.8287 165.254 24.3 164.638 24.636C164.031 24.9627 163.359 25.126 162.622 25.126ZM162.622 23.74C163.032 23.74 163.415 23.642 163.77 23.446C164.134 23.25 164.428 22.956 164.652 22.564C164.876 22.172 164.988 21.696 164.988 21.136C164.988 20.576 164.88 20.1047 164.666 19.722C164.451 19.33 164.166 19.036 163.812 18.84C163.457 18.644 163.074 18.546 162.664 18.546C162.253 18.546 161.87 18.644 161.516 18.84C161.17 19.036 160.895 19.33 160.69 19.722C160.484 20.1047 160.382 20.576 160.382 21.136C160.382 21.9667 160.592 22.6107 161.012 23.068C161.441 23.516 161.978 23.74 162.622 23.74ZM172.095 17.16C172.702 17.16 173.243 17.286 173.719 17.538C174.205 17.79 174.583 18.1633 174.853 18.658C175.124 19.1527 175.259 19.75 175.259 20.45V25H173.677V20.688C173.677 19.9973 173.505 19.47 173.159 19.106C172.814 18.7327 172.343 18.546 171.745 18.546C171.148 18.546 170.672 18.7327 170.317 19.106C169.972 19.47 169.799 19.9973 169.799 20.688V25H168.203V17.286H169.799V18.168C170.061 17.8507 170.392 17.6033 170.793 17.426C171.204 17.2487 171.638 17.16 172.095 17.16Z" fill="#25282D"/>
<path d="M112.94 39.1747C108.945 39.1747 105.681 42.2177 105.681 46.3997C105.681 50.5647 108.945 53.6247 112.94 53.6247C116.935 53.6247 120.199 50.5647 120.199 46.3997C120.199 42.2177 116.935 39.1747 112.94 39.1747ZM112.94 50.7857C110.747 50.7857 108.86 48.9837 108.86 46.3997C108.86 43.7987 110.747 42.0137 112.94 42.0137C115.133 42.0137 117.02 43.7987 117.02 46.3997C117.02 48.9837 115.116 50.7857 112.94 50.7857ZM97.0961 39.1747C93.1011 39.1747 89.8371 42.2177 89.8371 46.3997C89.8371 50.5647 93.1011 53.6247 97.0961 53.6247C101.091 53.6247 104.355 50.5647 104.355 46.3997C104.355 42.2177 101.091 39.1747 97.0961 39.1747ZM97.0961 50.7857C94.9031 50.7857 93.0161 48.9837 93.0161 46.3997C93.0161 43.7987 94.9031 42.0137 97.0961 42.0137C99.2891 42.0137 101.176 43.7987 101.176 46.3997C101.176 48.9837 99.2891 50.7857 97.0961 50.7857ZM78.2601 41.4017V44.4617H85.6041C85.3831 46.1787 84.8051 47.4537 83.9381 48.3207C82.8671 49.3917 81.2011 50.5647 78.2771 50.5647C73.7551 50.5647 70.2191 46.9267 70.2191 42.4047C70.2191 37.8827 73.7551 34.2447 78.2771 34.2447C80.7081 34.2447 82.4931 35.1967 83.8021 36.4377L85.9611 34.2787C84.1251 32.5277 81.6941 31.1847 78.2601 31.1847C72.0721 31.1847 66.8701 36.2167 66.8701 42.4217C66.8701 48.6097 72.0721 53.6587 78.2601 53.6587C81.6091 53.6587 84.1251 52.5707 86.0971 50.5137C88.1201 48.4907 88.7491 45.6347 88.7491 43.3397C88.7491 42.6257 88.6981 41.9627 88.5791 41.4187H78.2601V41.4017ZM155.287 43.7817C154.692 42.1667 152.856 39.1747 149.099 39.1747C145.376 39.1747 142.282 42.0987 142.282 46.3997C142.282 50.4457 145.342 53.6247 149.456 53.6247C152.771 53.6247 154.692 51.6017 155.474 50.4287L153.009 48.7797C152.193 49.9867 151.071 50.7857 149.456 50.7857C147.841 50.7857 146.685 50.0377 145.954 48.5927L155.627 44.5977L155.287 43.7817ZM145.427 46.1957C145.342 43.4077 147.586 41.9797 149.201 41.9797C150.459 41.9797 151.53 42.6087 151.887 43.5097L145.427 46.1957ZM137.573 53.1997H140.752V31.9497H137.573V53.1997ZM132.371 40.7897H132.252C131.538 39.9397 130.178 39.1747 128.444 39.1747C124.823 39.1747 121.508 42.3537 121.508 46.4337C121.508 50.4797 124.823 53.6417 128.444 53.6417C130.161 53.6417 131.538 52.8767 132.252 51.9927H132.354V53.0297C132.354 55.8007 130.875 57.2797 128.495 57.2797C126.557 57.2797 125.35 55.8857 124.857 54.7127L122.086 55.8687C122.885 57.7897 124.993 60.1357 128.495 60.1357C132.218 60.1357 135.363 57.9427 135.363 52.6047V39.6167H132.354V40.7897H132.371ZM128.716 50.7857C126.523 50.7857 124.687 48.9497 124.687 46.4337C124.687 43.8837 126.523 42.0307 128.716 42.0307C130.875 42.0307 132.575 43.9007 132.575 46.4337C132.592 48.9497 130.892 50.7857 128.716 50.7857ZM170.179 31.9497H162.58V53.1997H165.759V45.1417H170.196C173.715 45.1417 177.166 42.5917 177.166 38.5457C177.166 34.4997 173.681 31.9497 170.179 31.9497ZM170.247 42.1837H165.742V34.8907H170.247C172.627 34.8907 173.97 36.8627 173.97 38.5287C173.97 40.1947 172.627 42.1837 170.247 42.1837ZM189.865 39.1407C187.57 39.1407 185.19 40.1607 184.204 42.3877L187.026 43.5607C187.621 42.3877 188.743 41.9967 189.916 41.9967C191.548 41.9967 193.231 42.9827 193.248 44.7337V44.9547C192.67 44.6317 191.446 44.1387 189.933 44.1387C186.89 44.1387 183.813 45.8047 183.813 48.9157C183.813 51.7547 186.295 53.5907 189.083 53.5907C191.208 53.5907 192.398 52.6387 193.129 51.5167H193.231V53.1657H196.291V45.0227C196.308 41.2487 193.486 39.1407 189.865 39.1407ZM189.474 50.7857C188.437 50.7857 186.992 50.2587 186.992 48.9837C186.992 47.3517 188.794 46.7227 190.358 46.7227C191.752 46.7227 192.415 47.0287 193.248 47.4367C193.01 49.3917 191.31 50.7857 189.474 50.7857ZM207.46 39.5997L203.822 48.8137H203.72L199.946 39.5997H196.529L202.19 52.4857L198.96 59.6427H202.275L210.996 39.5997H207.46ZM178.9 53.1997H182.079V31.9497H178.9V53.1997Z" fill="#25282D"/>
<path d="M17.782 13.6924C17.289 14.2194 17 15.0354 17 16.0724V53.6764C17 54.7304 17.289 55.5464 17.782 56.0564L17.901 56.1754L38.964 35.1294V34.8744V34.6194L17.901 13.5734L17.782 13.6924Z" fill="#25282D"/>
<path d="M45.9849 42.1504L38.9639 35.1295V34.8745V34.6195L45.9849 27.5984L46.1379 27.6835L54.4509 32.4094C56.8309 33.7524 56.8309 35.9625 54.4509 37.3225L46.1379 42.0485L45.9849 42.1504Z" fill="#25282D"/>
<path d="M46.138 42.0481L38.964 34.8741L17.782 56.0561C18.564 56.8891 19.856 56.9911 21.318 56.1581L46.138 42.0481Z" fill="#25282D"/>
<path d="M46.1384 27.7001L21.3014 13.5901C19.8394 12.7571 18.5474 12.8591 17.7654 13.6921L38.9644 34.8741L46.1384 27.7001Z" fill="#25282D"/>
<path fill-rule="evenodd" clip-rule="evenodd" d="M46.9823 43.4087L17.5156 13.9421L18.7177 12.74L48.1844 42.2067L46.9823 43.4087Z" fill="white"/>
<path fill-rule="evenodd" clip-rule="evenodd" d="M17.255 55.5538L46.1073 26.5951L47.3116 27.7949L18.4593 56.7537L17.255 55.5538Z" fill="white"/>
</svg>
