<svg width="252" height="94" viewBox="0 0 252 94" fill="none" xmlns="http://www.w3.org/2000/svg">
<g filter="url(#filter0_d_2251_1092)">
<path d="M27.4831 76.9964C26.9004 76.9964 26.3317 76.9895 25.7534 76.9774C24.5556 76.9629 23.3606 76.866 22.1782 76.6875C21.0757 76.511 20.0076 76.1827 19.0093 75.7135C18.02 75.2481 17.1178 74.6379 16.3371 73.9063C15.5451 73.1833 14.8857 72.3447 14.3851 71.4238C13.879 70.4969 13.5287 69.5033 13.3465 68.4778C13.1497 67.3758 13.0432 66.2616 13.028 65.1446C13.0159 64.7697 13 63.5214 13 63.5214V22.4559C13 22.4559 13.0169 21.2268 13.0281 20.8657C13.0427 19.7505 13.1485 18.638 13.3447 17.5377C13.5273 16.5094 13.8778 15.513 14.3842 14.5831C14.883 13.6628 15.5387 12.8236 16.326 12.0979C17.1123 11.3654 18.0174 10.7521 19.0083 10.2803C20.0044 9.81257 21.0704 9.48661 22.1707 9.31335C23.357 9.13304 24.5562 9.03555 25.7582 9.02171L27.4841 9H224.057L225.803 9.02258C226.994 9.03573 228.182 9.13235 229.358 9.31161C230.469 9.48704 231.546 9.81527 232.554 10.2855C234.539 11.2363 236.154 12.7405 237.173 14.5874C237.672 15.5109 238.017 16.4992 238.197 17.5186C238.395 18.6279 238.507 19.7492 238.529 20.8735C238.535 21.377 238.535 21.9177 238.535 22.4559C238.55 23.1225 238.55 23.757 238.55 24.3968V61.6013C238.55 62.2472 238.55 62.8774 238.535 63.5127C238.535 64.0908 238.535 64.6204 238.527 65.1654C238.505 66.2697 238.396 67.3709 238.201 68.4604C238.022 69.4933 237.674 70.4946 237.168 71.4291C236.663 72.34 236.008 73.1713 235.225 73.8924C234.444 74.628 233.54 75.2418 232.548 75.7101C231.544 76.183 230.468 76.5125 229.358 76.6875C228.175 76.867 226.98 76.9639 225.782 76.9774C225.222 76.9895 224.636 76.9964 224.066 76.9964L221.993 77L27.4831 76.9964Z" fill="#FFF3E0" stroke="#FEB027"/>
<path d="M64.3544 41.4078C64.3743 39.8649 64.7841 38.352 65.5458 37.01C66.3075 35.668 67.3962 34.5405 68.7108 33.7323C67.8757 32.5397 66.774 31.5582 65.4932 30.8658C64.2125 30.1734 62.7879 29.7891 61.3327 29.7436C58.2284 29.4178 55.219 31.6011 53.6371 31.6011C52.0246 31.6011 49.5891 29.776 46.9664 29.8299C45.27 29.8847 43.6167 30.378 42.1676 31.2618C40.7185 32.1455 39.523 33.3895 38.6977 34.8727C35.1226 41.0626 37.7893 50.1597 41.214 55.1632C42.9275 57.6132 44.9301 60.35 47.5504 60.2529C50.1145 60.1466 51.0722 58.6179 54.1673 58.6179C57.2337 58.6179 58.1321 60.2529 60.8056 60.1912C63.5571 60.1466 65.2906 57.7303 66.944 55.257C68.1751 53.5113 69.1225 51.5819 69.7509 49.5402C68.1524 48.8641 66.7883 47.7324 65.8286 46.2863C64.869 44.8401 64.3563 43.1434 64.3544 41.4078Z" fill="#25282D" stroke="#25282D"/>
<path d="M59.3052 26.4528C60.8054 24.6519 61.5445 22.3371 61.3655 20C59.0735 20.2407 56.9564 21.3361 55.436 23.068C54.6926 23.914 54.1232 24.8983 53.7604 25.9645C53.3976 27.0307 53.2485 28.158 53.3217 29.2819C54.4681 29.2937 55.6022 29.0452 56.6386 28.5551C57.6751 28.0651 58.5868 27.3463 59.3052 26.4528Z" fill="#25282D" stroke="#25282D"/>
<path d="M95.1176 54.2963H86.7031L84.6823 60.263H81.1183L89.0884 38.1877H92.7913L100.761 60.263H97.1365L95.1176 54.2963ZM87.5746 51.5429H94.2444L90.9564 41.8594H90.8643L87.5746 51.5429Z" fill="#25282D"/>
<path d="M117.973 52.2166C117.973 57.2181 115.297 60.4314 111.257 60.4314C110.233 60.485 109.216 60.2492 108.32 59.7512C107.425 59.2532 106.687 58.5131 106.193 57.6156H106.116V65.5874H102.813V44.1684H106.01V46.8453H106.071C106.588 45.9521 107.338 45.2158 108.241 44.7148C109.143 44.2137 110.164 43.9667 111.196 44C115.281 44 117.973 47.229 117.973 52.2166ZM114.578 52.2166C114.578 48.9581 112.894 46.8158 110.325 46.8158C107.8 46.8158 106.103 49.0032 106.103 52.2166C106.103 55.4595 107.8 57.6312 110.325 57.6312C112.894 57.6312 114.578 55.5046 114.578 52.2166H114.578Z" fill="#25282D"/>
<path d="M135.689 52.2166C135.689 57.2181 133.011 60.4314 128.971 60.4314C127.948 60.485 126.93 60.2492 126.035 59.7512C125.139 59.2532 124.402 58.5131 123.907 57.6156H123.831V65.5874H120.527V44.1684H123.725V46.8453H123.786C124.303 45.9521 125.053 45.2158 125.955 44.7148C126.857 44.2137 127.879 43.9667 128.91 44C132.995 44 135.689 47.229 135.689 52.2166ZM132.292 52.2166C132.292 48.9581 130.608 46.8158 128.039 46.8158C125.515 46.8158 123.817 49.0032 123.817 52.2166C123.817 55.4595 125.515 57.6312 128.039 57.6312C130.608 57.6312 132.292 55.5046 132.292 52.2166Z" fill="#25282D"/>
<path d="M147.395 54.1123C147.64 56.3014 149.766 57.7388 152.673 57.7388C155.457 57.7388 157.46 56.3013 157.46 54.3275C157.46 52.614 156.252 51.5881 153.391 50.8849L150.53 50.1957C146.477 49.2166 144.595 47.3209 144.595 44.2447C144.595 40.4358 147.914 37.8196 152.626 37.8196C157.292 37.8196 160.49 40.4358 160.597 44.2447H157.263C157.063 42.0416 155.242 40.7119 152.581 40.7119C149.919 40.7119 148.098 42.0573 148.098 44.0155C148.098 45.5762 149.261 46.4945 152.107 47.1976L154.539 47.7948C159.068 48.8659 160.948 50.6853 160.948 53.9142C160.948 58.0442 157.66 60.6309 152.428 60.6309C147.532 60.6309 144.227 58.105 144.013 54.1121L147.395 54.1123Z" fill="#25282D"/>
<path d="M168.081 40.3594V44.1683H171.142V46.7845H168.081V55.6572C168.081 57.0356 168.694 57.678 170.04 57.678C170.403 57.6716 170.766 57.6461 171.126 57.6015V60.2021C170.521 60.3151 169.907 60.3663 169.291 60.3549C166.033 60.3549 164.762 59.131 164.762 56.0096V46.7845H162.422V44.1683H164.762V40.3594H168.081Z" fill="#25282D"/>
<path d="M172.913 52.2164C172.913 47.1525 175.896 43.9703 180.546 43.9703C185.213 43.9703 188.182 47.1524 188.182 52.2164C188.182 57.2943 185.229 60.4625 180.546 60.4625C175.866 60.4625 172.913 57.2943 172.913 52.2164ZM184.815 52.2164C184.815 48.7427 183.223 46.6924 180.546 46.6924C177.87 46.6924 176.278 48.7583 176.278 52.2164C176.278 55.7041 177.87 57.7387 180.546 57.7387C183.223 57.7387 184.815 55.7041 184.815 52.2164H184.815Z" fill="#25282D"/>
<path d="M190.904 44.1685H194.055V46.9079H194.132C194.345 46.0523 194.846 45.2962 195.551 44.7667C196.256 44.2371 197.122 43.9664 198.003 44.0001C198.384 43.9987 198.763 44.0401 199.135 44.1233V47.2134C198.654 47.0666 198.153 46.9991 197.65 47.0138C197.17 46.9943 196.692 47.0789 196.248 47.2618C195.804 47.4447 195.404 47.7216 195.077 48.0734C194.75 48.4252 194.503 48.8436 194.353 49.2998C194.203 49.7561 194.153 50.2395 194.208 50.7167V60.2631H190.904L190.904 44.1685Z" fill="#25282D"/>
<path d="M214.368 55.5357C213.923 58.4574 211.078 60.4625 207.437 60.4625C202.755 60.4625 199.849 57.3255 199.849 52.2928C199.849 47.2445 202.771 43.9703 207.299 43.9703C211.752 43.9703 214.552 47.0292 214.552 51.9092V53.041H203.184V53.2407C203.132 53.833 203.206 54.4297 203.402 54.9912C203.598 55.5526 203.911 56.066 204.32 56.4972C204.73 56.9284 205.226 57.2675 205.777 57.492C206.328 57.7165 206.92 57.8213 207.514 57.7995C208.295 57.8726 209.078 57.6918 209.748 57.2839C210.417 56.8761 210.938 56.2629 211.231 55.5357L214.368 55.5357ZM203.2 50.7321H211.246C211.276 50.1995 211.195 49.6666 211.009 49.1667C210.823 48.6668 210.536 48.2107 210.165 47.8272C209.794 47.4436 209.348 47.1408 208.855 46.9378C208.362 46.7347 207.832 46.6358 207.299 46.6473C206.761 46.6441 206.227 46.7474 205.73 46.9514C205.232 47.1554 204.779 47.4559 204.398 47.8357C204.017 48.2155 203.715 48.667 203.509 49.1641C203.304 49.6612 203.198 50.1942 203.2 50.7321V50.7321Z" fill="#25282D"/>
<path d="M87.1609 21.5711C87.8535 21.5214 88.5485 21.626 89.1957 21.8774C89.843 22.1288 90.4264 22.5208 90.9039 23.025C91.3814 23.5292 91.741 24.133 91.9568 24.7931C92.1726 25.4531 92.2392 26.1527 92.1519 26.8416C92.1519 30.2303 90.3204 32.1782 87.1609 32.1782H83.3295V21.5711H87.1609ZM84.9769 30.6781H86.9768C87.4717 30.7077 87.967 30.6266 88.4266 30.4406C88.8862 30.2546 89.2986 29.9685 89.6337 29.6031C89.9687 29.2377 90.2181 28.8021 90.3636 28.3281C90.5092 27.8542 90.5472 27.3537 90.4749 26.8632C90.5419 26.3747 90.5001 25.8773 90.3523 25.4068C90.2046 24.9363 89.9546 24.5044 89.6202 24.1418C89.2859 23.7793 88.8756 23.4952 88.4186 23.3099C87.9615 23.1246 87.4692 23.0427 86.9768 23.07H84.9769V30.6781Z" fill="#25282D"/>
<path d="M94.0135 28.1723C93.9631 27.6463 94.0233 27.1155 94.1901 26.6141C94.357 26.1127 94.6267 25.6516 94.9822 25.2606C95.3376 24.8695 95.7708 24.5571 96.2541 24.3432C96.7374 24.1294 97.26 24.019 97.7884 24.019C98.3169 24.019 98.8395 24.1294 99.3228 24.3432C99.806 24.5571 100.239 24.8695 100.595 25.2606C100.95 25.6516 101.22 26.1127 101.387 26.6141C101.554 27.1155 101.614 27.6463 101.563 28.1723C101.615 28.6989 101.555 29.2304 101.389 29.7326C101.222 30.2349 100.953 30.6968 100.597 31.0886C100.242 31.4804 99.8082 31.7935 99.3245 32.0078C98.8407 32.2221 98.3175 32.3328 97.7884 32.3328C97.2594 32.3328 96.7361 32.2221 96.2524 32.0078C95.7686 31.7935 95.3351 31.4804 94.9795 31.0886C94.624 30.6968 94.3544 30.2349 94.188 29.7326C94.0216 29.2304 93.9622 28.6989 94.0135 28.1723ZM99.9385 28.1723C99.9385 26.4372 99.159 25.4225 97.791 25.4225C96.4179 25.4225 95.6454 26.4372 95.6454 28.1723C95.6454 29.9214 96.4179 30.9283 97.791 30.9283C99.159 30.9283 99.9385 29.9144 99.9385 28.1723H99.9385Z" fill="#25282D"/>
<path d="M111.599 32.1783H109.96L108.306 26.2827H108.181L106.533 32.1783H104.91L102.703 24.1735H104.306L105.74 30.2816H105.858L107.504 24.1735H109.019L110.665 30.2816H110.79L112.217 24.1735H113.797L111.599 32.1783Z" fill="#25282D"/>
<path d="M115.652 24.1736H117.173V25.4452H117.291C117.491 24.9885 117.829 24.6056 118.257 24.35C118.685 24.0943 119.182 23.9786 119.679 24.019C120.069 23.9898 120.46 24.0485 120.824 24.1909C121.187 24.3333 121.514 24.5557 121.781 24.8416C122.047 25.1275 122.245 25.4697 122.361 25.8426C122.477 26.2156 122.507 26.6099 122.45 26.9963V32.1783H120.87V27.393C120.87 26.1066 120.311 25.4669 119.143 25.4669C118.879 25.4546 118.615 25.4996 118.369 25.5988C118.124 25.6981 117.903 25.8492 117.721 26.0419C117.54 26.2346 117.402 26.4642 117.317 26.7151C117.233 26.966 117.204 27.2322 117.232 27.4954V32.1784H115.652L115.652 24.1736Z" fill="#25282D"/>
<path d="M124.967 21.0486H126.547V32.1783H124.967V21.0486Z" fill="#25282D"/>
<path d="M128.744 28.1725C128.694 27.6464 128.754 27.1156 128.921 26.6142C129.088 26.1127 129.358 25.6517 129.713 25.2606C130.069 24.8695 130.502 24.5571 130.985 24.3432C131.469 24.1294 131.991 24.019 132.52 24.019C133.048 24.019 133.571 24.1294 134.054 24.3432C134.537 24.5571 134.971 24.8695 135.326 25.2606C135.682 25.6517 135.951 26.1127 136.118 26.6142C136.285 27.1156 136.345 27.6464 136.295 28.1725C136.346 28.6991 136.287 29.2306 136.12 29.7328C135.954 30.2351 135.684 30.6969 135.329 31.0887C134.973 31.4806 134.54 31.7937 134.056 32.0079C133.572 32.2222 133.049 32.3329 132.52 32.3329C131.991 32.3329 131.467 32.2222 130.984 32.0079C130.5 31.7937 130.066 31.4806 129.711 31.0887C129.355 30.6969 129.085 30.2351 128.919 29.7328C128.753 29.2306 128.693 28.6991 128.744 28.1725ZM134.669 28.1725C134.669 26.4373 133.89 25.4226 132.522 25.4226C131.149 25.4226 130.376 26.4373 130.376 28.1725C130.376 29.9215 131.149 30.9284 132.522 30.9284C133.89 30.9284 134.669 29.9146 134.669 28.1725H134.669Z" fill="#25282D"/>
<path d="M137.957 29.9145C137.957 28.4736 139.03 27.6429 140.935 27.5249L143.103 27.3999V26.7089C143.103 25.8635 142.544 25.3861 141.464 25.3861C140.582 25.3861 139.971 25.7099 139.796 26.2758H138.266C138.428 24.9009 139.721 24.019 141.537 24.019C143.544 24.019 144.676 25.018 144.676 26.7089V32.1783H143.155V31.0533H143.03C142.776 31.4569 142.42 31.7858 141.998 32.0066C141.575 32.2274 141.102 32.3322 140.626 32.3102C140.29 32.3451 139.95 32.3093 139.629 32.2049C139.307 32.1006 139.011 31.93 138.76 31.7043C138.509 31.4786 138.307 31.2027 138.169 30.8945C138.031 30.5862 137.959 30.2523 137.957 29.9145ZM143.103 29.2305V28.5613L141.148 28.6863C140.046 28.76 139.546 29.135 139.546 29.8407C139.546 30.5611 140.171 30.9804 141.03 30.9804C141.282 31.0059 141.536 30.9805 141.778 30.9056C142.02 30.8308 142.244 30.7081 142.438 30.5449C142.631 30.3816 142.79 30.1811 142.904 29.9553C143.018 29.7295 143.086 29.483 143.103 29.2305Z" fill="#25282D"/>
<path d="M146.752 28.1724C146.752 25.6431 148.052 24.0407 150.075 24.0407C150.575 24.0177 151.072 24.1375 151.506 24.3862C151.941 24.6348 152.296 25.0021 152.53 25.4451H152.648V21.0486H154.227V32.1783H152.714V30.9136H152.589C152.337 31.3535 151.97 31.7162 151.526 31.9624C151.083 32.2086 150.581 32.3289 150.075 32.3102C148.038 32.3103 146.752 30.7079 146.752 28.1724ZM148.384 28.1724C148.384 29.8703 149.184 30.8919 150.523 30.8919C151.854 30.8919 152.677 29.8555 152.677 28.1794C152.677 26.5111 151.846 25.4599 150.523 25.4599C149.193 25.4599 148.384 26.4885 148.384 28.1724H148.384Z" fill="#25282D"/>
<path d="M160.763 28.1723C160.713 27.6463 160.773 27.1155 160.94 26.6141C161.107 26.1127 161.377 25.6516 161.732 25.2606C162.088 24.8695 162.521 24.5571 163.004 24.3432C163.487 24.1294 164.01 24.019 164.538 24.019C165.067 24.019 165.59 24.1294 166.073 24.3432C166.556 24.5571 166.989 24.8695 167.345 25.2606C167.7 25.6516 167.97 26.1127 168.137 26.6141C168.304 27.1155 168.364 27.6463 168.313 28.1723C168.365 28.6989 168.305 29.2304 168.139 29.7326C167.972 30.2349 167.703 30.6968 167.347 31.0886C166.992 31.4804 166.558 31.7935 166.074 32.0078C165.591 32.2221 165.068 32.3328 164.538 32.3328C164.009 32.3328 163.486 32.2221 163.002 32.0078C162.519 31.7935 162.085 31.4804 161.73 31.0886C161.374 30.6968 161.104 30.2349 160.938 29.7326C160.772 29.2304 160.712 28.6989 160.763 28.1723ZM166.688 28.1723C166.688 26.4372 165.909 25.4225 164.541 25.4225C163.168 25.4225 162.395 26.4372 162.395 28.1723C162.395 29.9214 163.168 30.9283 164.541 30.9283C165.909 30.9283 166.688 29.9144 166.688 28.1723Z" fill="#25282D"/>
<path d="M170.432 24.1736H171.953V25.4452H172.071C172.272 24.9885 172.609 24.6056 173.038 24.35C173.466 24.0943 173.963 23.9786 174.46 24.019C174.85 23.9898 175.241 24.0485 175.604 24.1909C175.968 24.3333 176.295 24.5557 176.561 24.8416C176.827 25.1275 177.026 25.4697 177.142 25.8426C177.257 26.2156 177.288 26.6099 177.231 26.9963V32.1783H175.651V27.393C175.651 26.1066 175.092 25.4669 173.924 25.4669C173.659 25.4546 173.395 25.4996 173.15 25.5988C172.904 25.6981 172.683 25.8492 172.502 26.0419C172.32 26.2346 172.182 26.4642 172.098 26.7151C172.014 26.966 171.984 27.2322 172.012 27.4954V32.1784H170.432V24.1736Z" fill="#25282D"/>
<path d="M186.158 22.1805V24.2099H187.892V25.5406H186.158V29.6567C186.158 30.4952 186.503 30.8624 187.29 30.8624C187.491 30.8617 187.692 30.8496 187.892 30.8259V32.1418C187.609 32.1926 187.321 32.2196 187.033 32.2225C185.276 32.2225 184.576 31.6045 184.576 30.0612V25.5405H183.306V24.2099H184.576V22.1805H186.158Z" fill="#25282D"/>
<path d="M190.051 21.0486H191.617V25.4599H191.742C191.952 24.9989 192.299 24.6139 192.735 24.3573C193.172 24.1007 193.678 23.985 194.182 24.0259C194.57 24.0048 194.957 24.0695 195.317 24.2154C195.676 24.3612 195.999 24.5846 196.263 24.8697C196.526 25.1547 196.723 25.4943 196.84 25.8643C196.957 26.2343 196.991 26.6256 196.939 27.0101V32.1783H195.358V27.3999C195.358 26.1213 194.762 25.4737 193.646 25.4737C193.375 25.4515 193.102 25.4888 192.846 25.5831C192.59 25.6774 192.358 25.8265 192.166 26.0198C191.974 26.2131 191.827 26.446 191.735 26.7022C191.642 26.9584 191.606 27.2318 191.631 27.5032V32.1783H190.051L190.051 21.0486Z" fill="#25282D"/>
<path d="M206.15 30.0171C205.935 30.7486 205.47 31.3815 204.836 31.8048C204.202 32.2282 203.439 32.4151 202.681 32.3329C202.154 32.3468 201.63 32.2458 201.146 32.0369C200.661 31.828 200.228 31.5161 199.876 31.123C199.524 30.7299 199.262 30.2649 199.108 29.7604C198.954 29.2558 198.912 28.7238 198.984 28.2012C198.913 27.677 198.957 27.1438 199.11 26.6377C199.264 26.1317 199.525 25.6646 199.875 25.268C200.225 24.8715 200.656 24.5547 201.139 24.3392C201.622 24.1238 202.146 24.0146 202.674 24.0191C204.902 24.0191 206.245 25.5408 206.245 28.0545V28.6057H200.593V28.6942C200.568 28.988 200.605 29.2837 200.701 29.5623C200.798 29.841 200.951 30.0964 201.152 30.3124C201.352 30.5283 201.596 30.6998 201.867 30.8161C202.138 30.9324 202.43 30.9907 202.725 30.9874C203.103 31.0328 203.486 30.9648 203.825 30.792C204.164 30.6192 204.444 30.3494 204.629 30.017L206.15 30.0171ZM200.593 27.4373H204.636C204.656 27.1687 204.62 26.8988 204.529 26.6451C204.438 26.3914 204.296 26.1595 204.11 25.9642C203.925 25.7689 203.7 25.6146 203.451 25.5111C203.203 25.4077 202.935 25.3575 202.666 25.3637C202.393 25.3602 202.121 25.4115 201.868 25.5145C201.615 25.6175 201.385 25.7702 201.192 25.9634C200.999 26.1567 200.846 26.3867 200.744 26.6398C200.641 26.8929 200.589 27.1641 200.593 27.4373H200.593Z" fill="#25282D"/>
</g>
<defs>
<filter id="filter0_d_2251_1092" x="0" y="0" width="252" height="94" filterUnits="userSpaceOnUse" color-interpolation-filters="sRGB">
<feFlood flood-opacity="0" result="BackgroundImageFix"/>
<feColorMatrix in="SourceAlpha" type="matrix" values="0 0 0 0 0 0 0 0 0 0 0 0 0 0 0 0 0 0 127 0" result="hardAlpha"/>
<feOffset dy="4"/>
<feGaussianBlur stdDeviation="6"/>
<feComposite in2="hardAlpha" operator="out"/>
<feColorMatrix type="matrix" values="0 0 0 0 0.53151 0 0 0 0 0.318906 0 0 0 0 0 0 0 0 0.15 0"/>
<feBlend mode="normal" in2="BackgroundImageFix" result="effect1_dropShadow_2251_1092"/>
<feBlend mode="normal" in="SourceGraphic" in2="effect1_dropShadow_2251_1092" result="shape"/>
</filter>
</defs>
</svg>
